<svg width="746" height="746" viewBox="0 0 746 746" fill="none" xmlns="http://www.w3.org/2000/svg">
<g clip-path="url(#clip0_419_3899)">
<path d="M212.127 453.617C217.819 453.617 222.465 449.144 222.741 443.522C222.751 443.346 222.756 443.168 222.756 442.991C222.756 437.122 217.997 432.363 212.128 432.363C206.259 432.363 201.501 437.122 201.501 442.991C201.501 443.168 201.506 443.346 201.515 443.522C201.79 449.144 206.437 453.617 212.127 453.617Z" fill="white" fill-opacity="0.48"/>
<path d="M544.098 432.363C538.229 432.363 533.471 437.122 533.471 442.991C533.471 443.168 533.476 443.346 533.485 443.522C533.761 449.144 538.408 453.617 544.099 453.617C549.79 453.617 554.437 449.144 554.713 443.522C554.723 443.346 554.726 443.168 554.726 442.991C554.726 437.122 549.967 432.363 544.098 432.363Z" fill="white" fill-opacity="0.48"/>
<path d="M128.778 445.537H161.28C162.601 472.475 184.861 493.901 212.127 493.901C239.394 493.901 261.655 472.475 262.975 445.537H493.25C494.571 472.475 516.831 493.901 544.098 493.901C571.364 493.901 593.625 472.475 594.945 445.537H621.585C624.576 445.537 627.292 444.195 629.253 442.031C631.215 439.868 632.431 436.884 632.431 433.579C632.431 430.737 631.515 427.984 629.836 425.821L624.308 418.681C636.655 390.721 632.328 350.654 628.209 327.587C625.844 314.301 618.586 302.686 608.119 295.606C595.578 287.117 574.221 275.516 539.017 263.148C468.953 238.537 345.095 259.925 320.707 279.933C301.274 295.867 262.825 333.645 214.089 339.24C188.763 342.142 167.076 349.549 152.081 356.002C138.735 361.739 129.806 375.727 129.321 391.505L128.791 408.61L120.339 414.825C118.22 416.384 116.528 418.465 115.363 420.867C114.199 423.262 113.565 425.977 113.565 428.775C113.566 438.033 120.377 445.537 128.778 445.537ZM576.258 445.537C574.96 462.136 561.033 475.251 544.098 475.251C527.164 475.251 513.236 462.136 511.939 445.537C511.871 444.702 511.834 443.851 511.834 442.993C511.834 425.201 526.306 410.729 544.098 410.729C561.891 410.729 576.363 425.201 576.363 442.993C576.363 443.851 576.326 444.702 576.258 445.537ZM617.473 363.88C619.961 364.395 621.778 366.528 621.916 369.065C622.528 380.353 620.854 391.979 619.735 398.193C619.257 400.847 616.947 402.771 614.25 402.771H610.521C607.238 402.771 604.665 399.946 604.972 396.677L607.211 372.785C607.323 371.589 607.819 370.461 608.625 369.569L612.207 365.603C613.532 364.135 615.536 363.48 617.473 363.88ZM508.131 312.036L511.881 294.578C513.521 286.941 519.886 281.224 527.655 280.409L530.836 280.075C531.504 280.297 532.185 280.514 532.837 280.743C567.306 292.854 587.117 303.908 597.666 311.049C603.923 315.282 608.362 322.5 609.849 330.855C610.03 331.871 610.205 332.882 610.373 333.89H525.788C521.932 333.89 518.179 332.656 515.074 330.369C509.356 326.156 506.639 318.981 508.131 312.036ZM430.955 374.423H412.305C408.803 374.423 405.964 371.584 405.964 368.082C405.964 364.581 408.803 361.741 412.305 361.741H430.955C434.457 361.741 437.296 364.581 437.296 368.082C437.296 371.584 434.457 374.423 430.955 374.423ZM325.014 300.704C327.875 298.26 330.345 296.148 332.533 294.354C335.782 291.689 349.424 285.091 377.818 279.176C401.444 274.254 427.653 271.344 452.452 270.838L443.781 320.582C441.593 333.137 430.944 342.465 418.21 342.982L288.715 348.238C281.34 348.537 274.242 345.809 268.983 340.817C292.497 328.481 311.492 312.26 325.014 300.704ZM212.127 410.729C229.92 410.729 244.392 425.201 244.392 442.993C244.392 443.851 244.355 444.702 244.288 445.537C242.99 462.136 229.062 475.251 212.127 475.251C195.193 475.251 181.265 462.136 179.968 445.537C179.9 444.702 179.863 443.851 179.863 442.993C179.864 425.201 194.336 410.729 212.127 410.729ZM148.842 374.921C153.924 374.921 158.042 381.155 158.042 388.847C158.042 396.537 153.924 402.772 148.842 402.772C143.761 402.772 139.642 396.538 139.642 388.847C139.642 381.155 143.761 374.921 148.842 374.921Z" fill="white" fill-opacity="0.48"/>
<path d="M442.585 553.115H477.409C478.824 580.053 502.674 601.478 531.888 601.478C561.102 601.478 584.953 580.053 586.367 553.115H833.091C834.507 580.053 858.356 601.478 887.57 601.478C916.784 601.478 940.636 580.053 942.05 553.115H970.592C973.797 553.115 976.707 551.772 978.809 549.609C980.911 547.445 982.214 544.461 982.214 541.156C982.214 538.314 981.231 535.561 979.433 533.398L973.51 526.259C986.739 498.299 982.103 458.231 977.69 435.165C975.156 421.878 967.38 410.263 956.165 403.184C942.728 394.694 919.845 383.094 882.127 370.725C807.058 346.115 674.353 367.502 648.223 387.51C627.402 403.445 586.207 441.222 533.989 446.817C506.854 449.719 483.618 457.127 467.553 463.58C453.254 469.317 443.687 483.304 443.167 499.082L442.599 516.188L433.543 522.402C431.273 523.961 429.46 526.042 428.212 528.445C426.965 530.839 426.286 533.555 426.286 536.352C426.286 545.61 433.584 553.115 442.585 553.115ZM922.028 553.115C920.638 569.713 905.715 582.828 887.571 582.828C869.427 582.828 854.505 569.713 853.115 553.115C853.042 552.279 853.002 551.429 853.002 550.571C853.002 532.779 868.508 518.306 887.571 518.306C906.635 518.306 922.14 532.779 922.14 550.571C922.14 551.429 922.1 552.279 922.028 553.115ZM966.186 471.458C968.853 471.972 970.799 474.105 970.947 476.642C971.603 487.93 969.809 499.556 968.611 505.771C968.098 508.425 965.623 510.349 962.734 510.349H958.739C955.22 510.349 952.464 507.524 952.793 504.254L955.192 480.363C955.312 479.166 955.844 478.038 956.707 477.147L960.545 473.181C961.965 471.713 964.112 471.057 966.186 471.458ZM849.034 419.614L853.052 402.156C854.81 394.519 861.629 388.802 869.953 387.987L873.361 387.653C874.078 387.874 874.806 388.091 875.506 388.32C912.437 400.431 933.663 411.486 944.965 418.627C951.669 422.859 956.425 430.077 958.018 438.432C958.212 439.448 958.4 440.46 958.58 441.468H867.953C863.822 441.468 859.8 440.234 856.474 437.947C850.347 433.734 847.436 426.559 849.034 419.614ZM766.347 482.001H746.364C742.612 482.001 739.571 479.162 739.571 475.66C739.571 472.158 742.612 469.319 746.364 469.319H766.347C770.098 469.319 773.141 472.158 773.141 475.66C773.141 479.162 770.098 482.001 766.347 482.001ZM652.838 408.282C655.904 405.837 658.55 403.725 660.894 401.932C664.375 399.266 678.991 392.668 709.413 386.753C734.728 381.832 762.808 378.922 789.379 378.415L780.089 428.159C777.744 440.714 766.334 450.043 752.691 450.56L613.946 455.815C606.044 456.115 598.44 453.387 592.805 448.394C617.998 436.058 638.35 419.837 652.838 408.282ZM531.888 518.306C550.952 518.306 566.457 532.779 566.457 550.571C566.457 551.429 566.417 552.279 566.345 553.115C564.955 569.713 550.032 582.828 531.888 582.828C513.744 582.828 498.822 569.713 497.432 553.115C497.359 552.279 497.319 551.429 497.319 550.571C497.32 532.779 512.826 518.306 531.888 518.306ZM464.082 482.498C469.527 482.498 473.94 488.733 473.94 496.424C473.94 504.115 469.527 510.35 464.082 510.35C458.638 510.35 454.225 504.115 454.225 496.424C454.225 488.733 458.638 482.498 464.082 482.498Z" fill="white" fill-opacity="0.48"/>
</g>
<defs>
<clipPath id="clip0_419_3899">
<rect width="746" height="746" fill="white"/>
</clipPath>
</defs>
</svg>
