<svg width="113" height="76" viewBox="0 0 113 76" fill="none" xmlns="http://www.w3.org/2000/svg">
<path d="M82.3313 17.7553C82.2015 17.4986 82.0295 17.2598 81.8108 17.0598C81.5914 16.8604 81.3457 16.714 81.0896 16.6214L67.6286 11.7421C66.6908 11.4022 65.6865 11.2199 64.641 11.2294C63.5967 11.2406 62.5969 11.443 61.6639 11.8011L51.4504 15.7306C50.7315 16.0079 50.0178 16.3266 49.314 16.6894C49.0789 16.812 48.8478 16.945 48.618 17.0752C47.8469 16.6539 47.0419 16.2828 46.2019 15.9671C43.5225 14.957 40.7789 14.6161 38.1236 14.8449L31.2521 15.4398C30.9532 15.4658 30.6514 15.5589 30.3694 15.726C30.0874 15.8936 29.8545 16.1197 29.6715 16.381L14.1994 38.5952C13.8806 39.0513 13.7104 39.6319 13.7625 40.2461C13.8134 40.8603 14.0755 41.3989 14.4626 41.7861L21.1924 48.5127C20.8234 49.1942 20.5894 49.9594 20.5354 50.7783C20.4383 52.2498 20.9175 53.6704 21.8802 54.779C22.8444 55.8871 24.1775 56.5508 25.6377 56.6469C25.7154 56.6522 25.7945 56.6522 25.8736 56.6552C25.2751 58.6064 25.7648 60.8223 27.3237 62.3104C28.2567 63.2014 29.453 63.7205 30.7243 63.8037C29.9053 65.8509 30.3481 68.2923 32.0218 69.8894C33.0426 70.8652 34.3775 71.4015 35.7845 71.4015C37.2493 71.4015 38.6158 70.8244 39.6478 69.7825C40.0315 72.2828 42.0913 74.2766 44.6964 74.4483C44.8164 74.4566 44.9391 74.4619 45.059 74.4619C45.7247 74.4619 46.3625 74.3352 46.9555 74.1121C47.9242 74.7634 49.0791 75.1222 50.3081 75.072C51.8185 75.0084 53.1734 74.3363 54.1866 73.2849L50.4854 69.5603C50.4941 69.4741 50.5098 69.3916 50.5135 69.3024C50.5615 68.5709 50.4621 67.8629 50.2461 67.2049L57.8212 74.8254C58.7771 75.2176 59.8173 75.4142 60.9007 75.37C63.0686 75.2808 64.9998 74.2483 66.3674 72.6507L67.1257 71.7638C67.1958 71.6799 67.2497 71.5857 67.2964 71.4843L55.6332 59.7539C55.3324 59.4536 55.3084 58.9539 55.5753 58.6393C55.8427 58.3266 56.3059 58.316 56.6043 58.6163L70.4752 72.5668C71.2312 72.8341 72.0401 72.9643 72.8808 72.9295C74.7867 72.8509 76.4873 71.9431 77.6895 70.5359L79.521 68.3978C79.941 67.9046 80.1915 67.239 80.168 66.5158L67.9958 54.2768C67.6986 53.9758 67.6718 53.475 67.9385 53.1629C68.2077 52.8497 68.6697 52.8391 68.9675 53.1394L81.197 65.4379C81.6988 65.573 82.226 65.6391 82.7678 65.6172C84.3304 65.5536 85.7202 64.8101 86.7042 63.6578L87.1962 63.0832C88.1806 61.9334 88.7611 60.3757 88.7019 58.6817C88.6422 56.9885 87.9578 55.484 86.8966 54.416L83.6318 51.1332L84.4567 51.9615L93.2843 43.922C93.6593 43.5821 93.9312 43.1062 94.0309 42.5468C94.1298 41.9882 94.0402 41.4364 93.8104 40.9697L82.3313 17.7553ZM25.7911 54.2664C24.9634 54.212 24.2063 53.8356 23.6581 53.2055C23.1106 52.5773 22.8402 51.7707 22.8953 50.9341C23 49.2922 24.3631 48.0064 25.9906 48.0064C26.0596 48.0064 26.1297 48.0082 26.1987 48.0124C27.0264 48.0679 27.7835 48.4436 28.3317 49.0737C28.8792 49.7034 29.1496 50.5093 29.0963 51.3459C28.9827 53.0574 27.5079 54.3821 25.7911 54.2664ZM31.0835 61.4349C30.2862 61.4349 29.528 61.1316 28.9489 60.5787C27.7197 59.407 27.6532 57.4323 28.794 56.1839C28.8532 56.1219 30.0652 54.8287 30.6468 54.2115L30.9521 53.884C31.5453 53.2528 32.3467 52.9046 33.2089 52.9046C34.0069 52.9046 34.7656 53.2097 35.3435 53.7635C35.9465 54.3381 36.2923 55.1152 36.3147 55.953C36.3375 56.7877 36.0356 57.5838 35.4657 58.1904L34.601 59.1125C34.4162 59.3084 34.2178 59.5202 34.0149 59.7361C33.9827 59.7728 33.947 59.8092 33.9159 59.8435C33.7651 60.0035 33.6317 60.145 33.5281 60.2542C33.469 60.3185 33.41 60.3828 33.3492 60.4453C33.3339 60.4612 33.3223 60.4748 33.3211 60.4766C32.7327 61.095 31.9365 61.4349 31.0835 61.4349ZM38.0199 68.0581C37.4296 68.6765 36.6357 69.0162 35.7834 69.0162C34.9854 69.0162 34.2256 68.711 33.6481 68.1577C32.4196 66.986 32.3524 65.0118 33.4895 63.7693C33.5165 63.7398 34.2283 62.98 35.035 62.1215C35.035 62.1208 35.035 62.1208 35.035 62.1208L35.6339 61.4831C36.6828 60.3632 37.0267 59.9993 37.1426 59.8723C37.1561 59.8599 37.1718 59.8451 37.183 59.8322L37.1853 59.8304C37.2865 59.72 37.3455 59.6587 37.3473 59.6568C37.9394 59.0256 38.742 58.6769 39.6048 58.6769C40.4028 58.6769 41.1599 58.9813 41.7394 59.5347C42.3425 60.1106 42.6866 60.8882 42.7092 61.7237C42.7321 62.5621 42.4302 63.3575 41.858 63.9668C41.8032 64.0261 38.1398 67.9295 38.0199 68.0581ZM48.1543 69.1473C48.0419 70.8576 46.5695 72.184 44.8502 72.0701C43.1409 71.9556 41.8409 70.4605 41.9537 68.7378C42.0607 67.0945 43.4185 65.809 45.0483 65.809C45.1173 65.809 45.1875 65.8113 45.2565 65.8154C46.9658 65.9288 48.2656 67.4239 48.1543 69.1473ZM82.8315 50.3281L58.6512 26.0142L58.9238 25.3198C59.0648 24.9575 59.0467 24.5297 58.8401 24.1699C58.6331 23.8113 58.2867 23.6023 57.924 23.5829L56.127 23.4744L54.1638 23.3571L54.0146 25.7042C54.0127 25.753 53.6238 31.0902 50.9253 35.9123C48.1589 40.8607 44.4932 42.5669 43.9345 42.6766C43.3102 42.7987 42.6557 42.9149 42.1117 42.9149C41.7378 42.9149 41.4501 42.8619 41.2038 42.748L40.2858 42.3191C39.9008 42.1391 39.6071 41.8089 39.4522 41.3876C39.3011 40.981 39.303 40.5367 39.4522 40.1315L48.649 19.7754L50.2128 18.7364L50.8428 18.4944H50.8416L62.4 14.0482C63.1266 13.7691 63.8876 13.6228 64.6604 13.6156L64.7249 13.6149C65.4749 13.6149 66.2178 13.7458 66.9291 14.0044L80.3905 18.8837L91.8712 42.0972L82.8315 50.3281Z" fill="#0088CF"/>
<path d="M95.9142 2.9292L86.8268 7.4987C85.5199 8.15761 84.4599 9.31895 83.9592 10.8269C83.459 12.3356 83.6141 13.9055 84.264 15.2266L96.1624 39.2838C96.8145 40.6012 97.9654 41.6721 99.4635 42.1748C100.958 42.6798 102.514 42.5258 103.824 41.8674L112.909 37.2955L95.9142 2.9292ZM103.8 37.3098C102.593 37.3098 101.612 36.3227 101.612 35.1038C101.612 33.8837 102.593 32.8943 103.8 32.8943C105.009 32.8943 105.991 33.8837 105.991 35.1038C105.991 36.3227 105.009 37.3098 103.8 37.3098Z" fill="#242321"/>
<path d="M28.4505 10.2327C28.1774 8.66508 27.3045 7.35763 26.1075 6.50927L17.7982 0.624023L-4.09082 32.0498L4.21732 37.9362C5.41314 38.7846 6.93003 39.1711 8.48371 38.8968C10.0385 38.6237 11.3338 37.7399 12.1733 36.5345L27.4962 14.5358C28.3381 13.3302 28.7213 11.7988 28.4505 10.2327ZM7.40512 31.579C7.22436 32.7862 6.10989 33.6163 4.91361 33.4329C3.71733 33.2524 2.89467 32.1277 3.07543 30.9205C3.25573 29.7145 4.37111 28.8843 5.56511 29.0655C6.76207 29.248 7.58404 30.3736 7.40512 31.579Z" fill="#0088CF"/>
</svg>
