<svg width="37" height="15" viewBox="0 0 37 15" fill="none" xmlns="http://www.w3.org/2000/svg">
<path d="M2.03514 2.85947C2.07616 2.83505 6.15429 0.370211 8.98827 0.515719C11.3916 0.641695 19.1064 4.01279 21.9863 5.35068C22.5751 5.79075 23.0937 6.31757 23.5244 6.91318C23.6132 7.04147 23.663 7.19267 23.6678 7.34859C23.6727 7.50452 23.6324 7.65852 23.5518 7.79208C23.4675 7.95134 23.3384 8.08244 23.1805 8.16921C23.0226 8.25598 22.8427 8.29462 22.6631 8.28037L10.4404 7.4122C10.3181 7.40342 10.1952 7.41881 10.0788 7.45752C9.96241 7.49622 9.85478 7.55747 9.76206 7.63777C9.66934 7.71807 9.59334 7.81585 9.5384 7.92552C9.48347 8.03519 9.45067 8.1546 9.44189 8.27695C9.4331 8.39929 9.4485 8.52217 9.4872 8.63856C9.52591 8.75496 9.58715 8.86259 9.66745 8.95531C9.74775 9.04803 9.84553 9.12403 9.9552 9.17896C10.0649 9.2339 10.1843 9.2667 10.3066 9.27548L22.5303 10.1436C23.0618 10.1846 23.5938 10.0718 24.063 9.81885C24.5322 9.56589 24.9188 9.18338 25.1768 8.71689C25.4324 8.27646 25.5569 7.77215 25.5357 7.26333C25.5144 6.75451 25.3482 6.26237 25.0566 5.84482C24.7902 5.4677 24.4929 5.1133 24.168 4.78525L31.8828 1.22959H31.8887L32.5332 0.936617C33.1605 0.692888 33.8388 0.609888 34.5064 0.695167C35.1739 0.780447 35.8096 1.0313 36.3555 1.4249L21.8887 12.714C21.0328 13.4326 20.0096 13.924 18.9136 14.1426C17.8177 14.3613 16.6843 14.3002 15.6182 13.9649L2.02929 10.3702C1.95121 10.3496 1.87079 10.3391 1.79003 10.339H0.816395V2.9913H1.54882C1.71994 2.99276 1.88818 2.94716 2.03514 2.85947Z" fill="#0088CF"/>
</svg>
