<svg width="133" height="133" viewBox="0 0 133 133" fill="none" xmlns="http://www.w3.org/2000/svg">
<path fill-rule="evenodd" clip-rule="evenodd" d="M11.3017 11.302H27.0317V27.032H11.3017V11.302ZM0.719727 95.386H37.6137V132.28H0.719727V95.386ZM5.86773 100.82H32.1797V127.132H5.86773V100.82ZM11.3017 105.968H27.0317V121.698H11.3017V105.968ZM95.3857 0.719971H132.28V37.614H95.3857V0.719971ZM100.82 5.86797H127.132V32.18H100.82V5.86797ZM105.968 11.302H121.698V27.032H105.968V11.302ZM53.3437 69.074H58.4917V63.926H53.3437V69.074ZM95.3857 63.926H100.82V58.492H95.3857V63.926ZM111.116 42.762H116.55V48.196H111.116V42.762ZM111.116 74.508V69.074H105.968V74.508H111.116ZM69.0737 90.238H79.6557V84.804V79.656H74.5077H69.0737H63.9257V84.804V90.238H69.0737ZM53.3437 84.804H58.4917V90.238H53.3437V84.804ZM42.7617 90.238H48.1957V100.82H42.7617V90.238H32.1797V84.804H37.6137V79.656H32.1797V74.508H37.6137H42.7617H53.3437V69.074H48.1957V48.196H42.7617V63.926H37.6137V58.492H32.1797V53.344H37.6137V48.196H32.1797V42.762C41.0457 42.762 49.9117 42.762 58.4917 42.762V48.196H53.3437V58.492H58.4917V53.344H63.9257H74.5077V58.492H63.9257V69.074H58.4917V74.508V79.656H42.7617V84.804V90.238ZM48.1957 127.132H53.3437V121.698H48.1957V127.132ZM100.82 84.804H90.2377H84.8037H79.6557H69.0737V79.656V74.508H63.9257V69.074H69.0737V63.926H74.5077V74.508H84.8037V69.074H79.6557V63.926H74.5077V58.492H79.6557V53.344H74.5077V48.196H63.9257V32.18H69.0737V27.032H63.9257V21.884H58.4917V37.614H53.3437V21.884C49.9117 21.884 46.1937 21.884 42.7617 21.884V16.45H48.1957V11.302H42.7617V5.86797H48.1957V0.719971H53.3437V11.302H58.4917V5.86797H69.0737V0.719971H74.5077V5.86797H84.8037V0.719971H90.2377V11.302H79.6557V16.45H84.8037V21.884H90.2377V37.614H84.8037V42.762H79.6557V53.344H84.8037H90.2377V63.926H95.3857V69.074H100.82V84.804ZM111.116 84.804H105.968V79.656H111.116V84.804ZM95.3857 95.386H100.82V100.82H95.3857V95.386ZM105.968 116.55V121.698H116.55V127.132H127.132V116.55H121.698V121.698H116.55V111.116H111.116V116.55H105.968ZM74.5077 116.55H79.6557V111.116H74.5077V116.55ZM90.2377 127.132H79.6557V132.28H48.1957H42.7617V127.132V105.968H48.1957V116.55H58.4917V121.698V127.132H74.5077V121.698H69.0737V116.55H63.9257V111.116H53.3437V105.968H58.4917V100.82H53.3437V95.386H74.5077V100.82H79.6557V105.968H74.5077V100.82H63.9257V105.968H84.8037V95.386H79.6557V90.238H84.8037V84.804V79.656H95.3857V74.508H90.2377V63.926H84.8037V53.344V48.196H90.2377V42.762H95.3857V53.344H100.82V42.762H105.968V53.344H116.55V58.492H105.968V63.926H111.116V69.074H116.55H121.698V79.656H127.132V84.804H132.28V74.508H127.132V69.074H132.28V53.344H127.132V42.762H121.698V58.492H127.132V63.926H116.55V69.074V84.804V90.238H111.116V84.804H116.55H121.698V95.386H127.132H132.28V100.82V105.968H127.132V100.82H116.55V105.968H121.698V111.116H127.132H132.28V116.55V127.132V132.28H127.132H105.968H100.82V127.132H95.3857V132.28H90.2377V127.132ZM90.2377 105.968H106.54V90.238H90.2377V105.968ZM84.8037 121.698V116.55H79.6557V121.698H84.8037ZM95.3857 116.55V121.698H90.2377V127.132H95.3857V121.698H100.82V116.55H95.3857ZM42.7617 79.656V74.508V69.074H37.6137H27.0317V79.656H11.3017V74.508H5.86773V90.238H0.719727V69.074H11.3017V63.926H5.86773V58.492H0.719727V53.344H5.86773V48.196H0.719727V42.762H27.0317V48.196H11.3017V53.344H16.4497V58.492H21.8837V53.344H27.0317V63.926H21.8837V69.074H27.0317V63.926H37.6137V69.074V74.508V79.656H42.7617ZM11.3017 84.804H16.4497V90.238H11.3017V84.804ZM42.7617 27.032H48.1957V37.614H42.7617V27.032ZM53.3437 21.884H58.4917V16.45H53.3437V21.884ZM63.9257 21.884H69.0737V16.45H74.5077V11.302H63.9257V21.884ZM79.6557 42.762V37.614H74.5077V32.18H69.0737V42.762H79.6557ZM84.8037 37.614V32.18H79.6557V37.614H84.8037ZM84.8037 21.884H74.5077V27.032H84.8037V21.884ZM0.719727 0.719971H37.6137V37.614H0.719727V0.719971ZM5.86773 5.86797H32.1797V32.18H5.86773V5.86797Z" fill="#202020"/>
</svg>
